<svg version="1.2" xmlns="http://www.w3.org/2000/svg" viewBox="0 0 1120 699" width="1120" height="699">
	<title>serverdown-svg</title>
	<style>
		.s0 { fill: #f2f2f2 } 
		.s1 { fill: #2f2e41 } 
		.s2 { fill: #3282b8 } 
		.s3 { fill: #a8a8a8 } 
		.s4 { opacity: .2;fill: #000000 } 
		.s5 { fill: #3f3d56 } 
		.s6 { opacity: .1;fill: #000000 } 
		.s7 { fill: none;stroke: #2f2e41;stroke-miterlimit:10;stroke-width: 2 } 
		.s8 { opacity: .4;fill: #0f4c75 } 
		.s9 { opacity: .8;fill: #3282b8 } 
		.s10 { fill: #bbe1fa } 
		.s11 { fill: #ffffff } 
	</style>
	<path id="Layer" class="s0" d="m292.6 426c-117.8 0-213-95.2-213-213 0-117.8 95.2-213 213-213 117.8 0 213 95.2 213 213 0 117.8-95.2 213-213 213z"/>
	<path id="Layer" class="s1" d="m0 51.1c0 77.5 48.6 140.3 108.7 140.3"/>
	<path id="Layer" class="s2" d="m108.7 191.4c0-78.4 54.3-141.8 121.3-141.8"/>
	<path id="Layer" class="s2" d="m39.4 58.2c0 73.6 31 133.2 69.3 133.2"/>
	<path id="Layer" class="s1" d="m108.7 191.4c0-100.2 62.7-181.2 140.2-181.2"/>
	<path id="Layer" class="s3" d="m85.8 192.3c0 0 15.4-0.4 20.1-3.7 4.6-3.4 23.7-7.3 24.9-2 1.1 5.3 23.1 26.4 5.7 26.5-17.4 0.2-40.4-2.7-45.1-5.5-4.6-2.8-5.6-15.3-5.6-15.3z"/>
	<path id="Layer" class="s4" d="m136.8 211.3c-17.4 0.1-40.4-2.7-45-5.6-3.6-2.1-5-9.8-5.5-13.4q-0.5 0-0.5 0c0 0 1 12.5 5.6 15.3 4.7 2.8 27.7 5.7 45.1 5.5 5 0 6.8-1.8 6.7-4.4-0.7 1.6-2.6 2.6-6.4 2.6z"/>
	<path id="Layer" class="s5" d="m198.6 449.9c-103.4 0-187-11.3-187-25.4 0-14.1 83.6-25.4 187-25.4 103.4 0 187 11.3 187 25.4 0 14.1-83.6 25.4-187 25.4z"/>
	<path id="Layer" class="s6" d="m198.6 445.9c-86.8 0-157-9.6-157-21.4 0-11.8 70.2-21.4 157-21.4 86.8 0 157 9.6 157 21.4 0 11.8-70.2 21.4-157 21.4z"/>
	<path id="Layer" class="s5" d="m836.6 699c-156.5 0-283-17.2-283-38.5 0-21.3 126.5-38.5 283-38.5 156.5 0 283 17.2 283 38.5 0 21.3-126.5 38.5-283 38.5z"/>
	<path id="Layer" class="s5" d="m310.6 668.6c-94 0-170-10.3-170-23.1 0-12.8 76-23.1 170-23.1 94 0 170 10.3 170 23.1 0 12.8-76 23.1-170 23.1z"/>
	<path id="Layer" fill-rule="evenodd" class="s7" d="m462.6 626c90 23 263-30 282-90"/>
	<path id="Layer" fill-rule="evenodd" class="s7" d="m309.6 259c0 0 130-36 138 80 8 116-107 149-17 172"/>
	<path id="Layer" fill-rule="evenodd" class="s7" d="m184 537.3c0 0 39.1-10.8 41.5 24 2.4 34.9-32.2 44.8-5.1 51.7"/>
	<path id="Layer" class="s1" d="m778.7 563.2l-7.9 50.3c0 0-38.8 20.6-11.5 21.2 27.3 0.6 155.7 0 155.7 0 0 0 24.9 0-14.5-21.8l-7.9-52.7z"/>
	<path id="Layer" class="s6" d="m753.8 634.2c6.2-5.5 17-11.3 17-11.3l7.9-50.2 113.9 0.1 7.9 49.5c9.2 5.1 14.9 9 18.2 12 5.1-1.1 10.6-5.4-18.2-21.4l-7.9-52.7-113.9 3-7.9 50.3c0 0-32.6 17.3-17 20.7z"/>
	<path id="Layer" class="s1" d="m578.4 230.7c0-9.9 8.1-18 18.1-18h477.1c10 0 18.1 8.1 18.1 18v321.5c0 9.9-8.1 18-18.1 18h-477.1c-10 0-18.1-8.1-18.1-18z"/>
	<path id="Layer" class="s5" d="m595.7 231.8h478.7v267.8h-478.7z"/>
	<path id="Layer" class="s0" d="m835.1 226.3c-1.7 0-3.1-1.3-3.1-3 0-1.7 1.4-3 3.1-3 1.6 0 3 1.3 3 3 0 1.7-1.4 3-3 3z"/>
	<path id="Layer" class="s1" d="m1091.7 520.8v31.4c0 2.3-0.5 4.7-1.4 6.9-0.9 2.2-2.2 4.1-3.9 5.8-1.7 1.7-3.7 3-5.9 3.9-2.1 0.9-4.5 1.4-6.9 1.4h-477.1c-2.4 0-4.7-0.5-6.9-1.4-2.2-0.9-4.2-2.2-5.9-3.9-1.7-1.7-3-3.6-3.9-5.8-0.9-2.2-1.4-4.6-1.4-6.9v-31.4z"/>
	<path id="Layer" class="s1" d="m969 667.5v6h-326v-4.8l0.4-1.2 8.1-21.8h310.8l6.7 21.8z"/>
	<path id="Layer" class="s1" d="m1094.4 661.5c-0.6 2.6-2.8 5.3-7.9 7.8-18.1 9.1-55.1-2.4-55.1-2.4 0 0-28.5-4.9-28.5-17.6q0.3-0.2 0.6-0.4 0.3-0.2 0.6-0.4 0.3-0.2 0.7-0.4 0.3-0.1 0.6-0.3c7.7-4 33-14 77.9 0.4q1.3 0.4 2.4 1 1.2 0.5 2.3 1.2 1.1 0.7 2 1.6 1 0.8 1.9 1.8c1.8 2.2 3.2 4.9 2.5 7.7z"/>
	<path id="Layer" class="s6" d="m1094.4 661.5c-22.2 8.6-42 9.2-62.4-4.9-10.3-7.2-19.6-8.9-26.6-8.8 7.7-4 33-14 77.9 0.4q1.3 0.4 2.4 1 1.2 0.5 2.3 1.2 1.1 0.7 2 1.6 1 0.8 1.9 1.8c1.8 2.2 3.2 4.9 2.5 7.7z"/>
	<path id="Layer" class="s0" d="m1066.5 656.6c-4.3 0-7.8-1.1-7.8-2.5 0-1.3 3.5-2.4 7.8-2.4 4.4 0 7.9 1.1 7.9 2.4 0 1.4-3.5 2.5-7.9 2.5z"/>
	<path id="Layer" class="s0" d="m835.1 557.2c-6.4 0-11.6-5.2-11.6-11.5 0-6.4 5.2-11.5 11.6-11.5 6.3 0 11.5 5.1 11.5 11.5 0 6.3-5.2 11.5-11.5 11.5z"/>
	<path id="Layer" class="s6" d="m969 667.5v6h-326v-4.8l0.4-1.2h325.6z"/>
	<path id="Layer" class="s1" d="m108.6 159h208v242h-208z"/>
	<path id="Layer" class="s5" d="m87.6 135h250v86h-250z"/>
	<path id="Layer" class="s5" d="m87.6 237h250v86h-250z"/>
	<path id="Layer" class="s5" d="m87.6 339h250v86h-250z"/>
	<path id="Layer" class="s8" d="m271.6 150h16v16h-16z"/>
	<path id="Layer" class="s9" d="m294.6 150h16v16h-16z"/>
	<path id="Layer" class="s10" d="m317.6 150h16v16h-16z"/>
	<path id="Layer" class="s8" d="m271.6 251h16v16h-16z"/>
	<path id="Layer" class="s9" d="m294.6 251h16v16h-16z"/>
	<path id="Layer" class="s10" d="m317.6 251h16v16h-16z"/>
	<path id="Layer" class="s8" d="m271.6 352h16v16h-16z"/>
	<path id="Layer" class="s9" d="m294.6 352h16v16h-16z"/>
	<path id="Layer" class="s10" d="m317.6 352h16v16h-16z"/>
	<path id="Layer" class="s1" d="m316.6 617c-43.7 0-79-35.3-79-79 0-43.7 35.3-79 79-79 43.7 0 79 35.3 79 79 0 43.7-35.3 79-79 79z"/>
	<path id="Layer" class="s1" d="m280.6 600h24v43h-24z"/>
	<path id="Layer" class="s1" d="m328.6 600h24v43h-24z"/>
	<path id="Layer" class="s1" d="m300.6 651c-11.1 0-20-3.4-20-7.5 0-4.1 8.9-7.5 20-7.5 11.1 0 20 3.4 20 7.5 0 4.1-8.9 7.5-20 7.5z"/>
	<path id="Layer" class="s1" d="m348.6 650c-11.1 0-20-3.4-20-7.5 0-4.1 8.9-7.5 20-7.5 11.1 0 20 3.4 20 7.5 0 4.1-8.9 7.5-20 7.5z"/>
	<path id="Layer" class="s11" d="m318.6 545c-14.9 0-27-12.1-27-27 0-14.9 12.1-27 27-27 14.9 0 27 12.1 27 27 0 14.9-12.1 27-27 27z"/>
	<path id="Layer" class="s5" d="m318.6 527c-5 0-9-4-9-9 0-5 4-9 9-9 5 0 9 4 9 9 0 5-4 9-9 9z"/>
	<path id="Layer" class="s2" d="m240 464.5c-6.4-28.5 14-57.4 45.5-64.4 31.6-7.1 62.3 10.4 68.7 38.9 6.3 28.6-14.6 39.1-46.1 46.2-31.5 7-61.7 7.9-68.1-20.7z"/>
	<path id="Layer" class="s1" d="m390.7 522.2c-20.1 8.6-38.5 10.5-41.2 4.2-2.7-6.3 11.4-18.4 31.4-27 20.1-8.6 38.5-10.4 41.2-4.1 2.7 6.3-11.3 18.3-31.4 26.9z"/>
	<path id="Layer" class="s1" d="m242.7 575.2c-20.1 8.6-38.5 10.5-41.2 4.2-2.7-6.3 11.4-18.4 31.4-27 20.1-8.6 38.5-10.4 41.2-4.1 2.7 6.3-11.3 18.3-31.4 26.9z"/>
	<path id="Layer" class="s11" d="m362.6 561c0 7.7-19.9 23-42 23-22.1 0-43-14.3-43-22 0-7.7 20.9-6 43-6 22.1 0 42-2.7 42 5z"/>
</svg>